<mxfile host="app.diagrams.net" modified="2023-09-18T16:08:32.624Z" agent="Mozilla/5.0 (Windows NT 10.0; Win64; x64) AppleWebKit/537.36 (KHTML, like Gecko) Chrome/116.0.0.0 Safari/537.36" version="21.7.5" etag="vsKpnOFXgHEQFAmdDMWb" type="github">
  <diagram name="PÃ¡gina-1" id="dhGsPdg_gYSQcw3oc5P0">
    <mxGraphModel>
      <root>
        <mxCell id="0" />
        <mxCell id="1" parent="0" />
      </root>
    </mxGraphModel>
  </diagram>
</mxfile>
